<?xml version="1.0" encoding="UTF-8" standalone="no"?>
<!-- Created with Inkscape (http://www.inkscape.org/) -->

<svg
   xmlns:dc="http://purl.org/dc/elements/1.1/"
   xmlns:cc="http://creativecommons.org/ns#"
   xmlns:rdf="http://www.w3.org/1999/02/22-rdf-syntax-ns#"
   xmlns:svg="http://www.w3.org/2000/svg"
   xmlns="http://www.w3.org/2000/svg"
   version="1.1"
   width="1024"
   height="275"
   id="svg15823">
  <defs
     id="defs15825">
    <clipPath
       id="clipPath15733">
      <path
         d="m 406.077,78.472 132.734,0 0,34.755 -132.734,0 0,-34.755 z"
         id="path15735" />
    </clipPath>
  </defs>
  <metadata
     id="metadata15828">
    <rdf:RDF>
      <cc:Work
         rdf:about="">
        <dc:format>image/svg+xml</dc:format>
        <dc:type
           rdf:resource="http://purl.org/dc/dcmitype/StillImage" />
        <dc:title></dc:title>
      </cc:Work>
    </rdf:RDF>
  </metadata>
  <g
     transform="translate(0,-493)"
     id="layer1">
    <g
       transform="matrix(7.638125,0,0,-7.638125,-3098.2865,1363.8076)"
       id="g15729">
      <g
         clip-path="url(#clipPath15733)"
         id="g15731">
        <g
           transform="translate(412.3683,83.6724)"
           id="g15737">
          <path
             d="m 0,0 0,15.51 10.102,0 c 5.36,0 8.063,-2.657 8.063,-7.637 C 18.165,1.802 14.561,0 7.352,0 L 0,0 z m -5.691,-4.601 14.276,0 c 4.363,0 7.683,0.427 10.055,1.898 3.415,2.086 5.407,5.881 5.407,10.481 0,7.589 -4.838,12.095 -13.992,12.095 l -15.746,0 0,-24.474 z"
             id="path15739"
             style="fill:#8f9396;fill-opacity:1;fill-rule:evenodd;stroke:none" />
        </g>
        <g
           transform="translate(412.3683,83.6724)"
           id="g15741">
          <path
             d="m 0,0 0,15.51 10.102,0 c 5.36,0 8.063,-2.657 8.063,-7.637 C 18.165,1.802 14.561,0 7.352,0 L 0,0 z m -5.691,-4.601 14.276,0 c 4.363,0 7.683,0.427 10.055,1.898 3.415,2.086 5.407,5.881 5.407,10.481 0,7.589 -4.838,12.095 -13.992,12.095 l -15.746,0 0,-24.474 z"
             id="path15743"
             style="fill:none;stroke:#8e9296;stroke-width:0.31;stroke-linecap:butt;stroke-linejoin:miter;stroke-miterlimit:3.86400008;stroke-opacity:1;stroke-dasharray:none" />
        </g>
        <g
           transform="translate(463.875,99.1818)"
           id="g15745">
          <path
             d="m 0,0 0,-2.751 5.549,0.996 0,0.569 c 0,4.411 -1.612,5.549 -6.071,5.549 l -16.885,0 c -4.6,0 -6.071,-1.185 -6.071,-5.786 l 0,-12.901 c 0,-4.6 1.471,-5.786 6.071,-5.786 l 16.885,0 c 4.601,0 6.071,1.186 6.071,5.786 l 0,8.443 -14.845,0 0,-4.174 9.296,0 0,-5.455 -17.786,0 0,15.51 L 0,0 z"
             id="path15747"
             style="fill:#8f9396;fill-opacity:1;fill-rule:nonzero;stroke:none" />
        </g>
        <g
           transform="translate(463.875,99.1818)"
           id="g15749">
          <path
             d="m 0,0 0,-2.751 5.549,0.996 0,0.569 c 0,4.411 -1.612,5.549 -6.071,5.549 l -16.885,0 c -4.6,0 -6.071,-1.185 -6.071,-5.786 l 0,-12.901 c 0,-4.6 1.471,-5.786 6.071,-5.786 l 16.885,0 c 4.601,0 6.071,1.186 6.071,5.786 l 0,8.443 -14.845,0 0,-4.174 9.296,0 0,-5.455 -17.786,0 0,15.51 L 0,0 z"
             id="path15751"
             style="fill:none;stroke:#8e9296;stroke-width:0.31;stroke-linecap:butt;stroke-linejoin:miter;stroke-miterlimit:3.86400008;stroke-opacity:1;stroke-dasharray:none" />
        </g>
        <g
           transform="translate(492.2911,99.3241)"
           id="g15753">
          <path
             d="m 0,0 c 1.755,0 2.561,-0.332 2.561,-1.945 l 0,-2.94 C 2.561,-6.498 1.755,-6.83 0,-6.83 l -12.806,0 0,6.83 L 0,0 z m -18.402,-20.252 5.596,0 0,9.248 5.407,0 9.865,-9.248 8.158,0 -11.288,9.248 3.225,0 c 3.747,0 5.502,1.328 5.502,4.743 l 0,5.739 c 0,3.415 -1.755,4.743 -5.502,4.743 l -20.963,0 0,-24.473 z"
             id="path15755"
             style="fill:#8f9396;fill-opacity:1;fill-rule:evenodd;stroke:none" />
        </g>
        <g
           transform="translate(492.2911,99.3241)"
           id="g15757">
          <path
             d="m 0,0 c 1.755,0 2.561,-0.332 2.561,-1.945 l 0,-2.94 C 2.561,-6.498 1.755,-6.83 0,-6.83 l -12.806,0 0,6.83 L 0,0 z m -18.402,-20.252 5.596,0 0,9.248 5.407,0 9.865,-9.248 8.158,0 -11.288,9.248 3.225,0 c 3.747,0 5.502,1.328 5.502,4.743 l 0,5.739 c 0,3.415 -1.755,4.743 -5.502,4.743 l -20.963,0 0,-24.473 z"
             id="path15759"
             style="fill:none;stroke:#8e9296;stroke-width:0.31;stroke-linecap:butt;stroke-linejoin:miter;stroke-miterlimit:3.86400008;stroke-opacity:1;stroke-dasharray:none" />
        </g>
        <g
           transform="translate(532.6039,113.2273)"
           id="g15761">
          <path
             d="m 0,0 6.207,0 -2.999,-5.448 -6.115,0 L 0,0 z"
             id="path15763"
             style="fill:#1c63b7;fill-opacity:1;fill-rule:nonzero;stroke:none" />
        </g>
        <g
           transform="translate(525.2241,99.3962)"
           id="g15765">
          <path
             d="m 0,0 5.975,0 -2.999,-5.447 -5.882,0 L 0,0 z"
             id="path15767"
             style="fill:#d22837;fill-opacity:1;fill-rule:nonzero;stroke:none" />
        </g>
        <g
           transform="translate(528.9135,106.3111)"
           id="g15769">
          <path
             d="m 0,0 6.091,0 -2.998,-5.447 -5.999,0 L 0,0 z"
             id="path15771"
             style="fill:#28a842;fill-opacity:1;fill-rule:nonzero;stroke:none" />
        </g>
        <g
           transform="translate(518.1714,86.1786)"
           id="g15773">
          <path
             d="m 0,0 3.362,6.302 5.86,0.001 -7.467,-13.565 -4.118,0 -14.314,24.784 6.859,0 L 0,0 z"
             id="path15775"
             style="fill:#8f9396;fill-opacity:1;fill-rule:nonzero;stroke:none" />
        </g>
      </g>
    </g>
  </g>
</svg>
