<svg xmlns="http://www.w3.org/2000/svg" aria-hidden="true" class="hidden fill-current lg:block lg:h-10 lg:w-26 iconify iconify--beyond" viewBox="0.1 0 799.83 310.02">
  <path d="M613.9 0h186v186h-186zM91.522 77.386v31.244h41.863v30.346c-9.54 9.744-22.707 14.677-39.166 14.677-33.927 0-57.325-23.286-57.325-60.762 0-37.332 23.474-60.524 57.53-60.524 17.048 0 32.962 6.007 46.017 17.356l1.878 1.639 22.578-21.589-1.843-1.97C146.406 9.891 122.599.428 94.219.428 39.027.429.1 37.58.1 92.882c0 55.446 38.927 92.692 94.119 92.692 32.245 0 58.928-12.356 75.123-34.805l.521-.717V77.386zm249.331-42.419V3.515H202.354v178.566h37.025V108.63h94.357V77.178h-94.357V34.967zm29.431-31.35v31.418h49.126v146.944h36.973V35.035h49.082V3.617zM23.255 308.833v-48.63H5.759v-11.216h47.733v11.215H36.085v48.631zm50.292 0v-59.846h42.35v11.215H86.288v12.651h28.981v11.216H86.29v13.549h29.608v11.215zm61.329-29.878c0-18.394 13.907-30.955 31.852-30.955 13.19 0 20.816 7.178 25.033 14.625l-10.946 5.383c-2.513-4.845-7.896-8.703-14.087-8.703-10.857 0-18.753 8.344-18.753 19.65s7.896 19.65 18.753 19.65c6.191 0 11.574-3.77 14.087-8.703l10.946 5.293c-4.306 7.447-11.844 14.715-25.033 14.715-17.945 0-31.852-12.562-31.852-30.955m116.442 29.878V283.71h-28.263v25.123h-12.741v-59.846h12.74v23.507h28.264v-23.507h12.83v59.846zm78.712 0-28.532-39.03v39.03h-12.741v-59.846h13.1l27.725 37.595v-37.595h12.74v59.846zm31.226-29.878c0-18.035 13.19-30.955 31.224-30.955 18.124 0 31.314 12.92 31.314 30.955s-13.19 30.955-31.314 30.955c-18.035 0-31.224-12.92-31.224-30.955m49.438 0c0-11.216-7.178-19.65-18.214-19.65-11.037 0-18.125 8.434-18.125 19.65 0 11.126 7.088 19.65 18.125 19.65s18.214-8.524 18.214-19.65m31.998 29.878v-59.846h12.742v48.63h25.302v11.216zm51.559-29.878c0-18.035 13.19-30.955 31.225-30.955 18.124 0 31.313 12.92 31.313 30.955s-13.19 30.955-31.313 30.955c-18.036 0-31.225-12.92-31.225-30.955m49.438 0c0-11.216-7.178-19.65-18.213-19.65-11.037 0-18.125 8.434-18.125 19.65 0 11.126 7.088 19.65 18.125 19.65 11.035 0 18.213-8.524 18.213-19.65m28.162 0c0-18.933 14.356-30.955 31.852-30.955 12.473 0 20.278 6.28 24.765 13.369l-10.588 5.742c-2.692-4.217-7.806-7.806-14.177-7.806-10.856 0-18.752 8.344-18.752 19.65s7.896 19.65 18.752 19.65c5.294 0 10.319-2.333 12.741-4.577v-7.177h-15.791v-11.126h28.533v22.97C623.084 305.513 614.56 310 603.703 310c-17.496 0-31.852-12.203-31.852-31.045m80.292 29.878v-59.846h12.742v59.846zm37.405 0v-59.846h42.35v11.215H702.29v12.651h28.98v11.216h-28.98v13.549h29.609v11.215zm61.092-8.433 6.91-9.69c4.217 4.395 10.766 8.074 19.021 8.074 6.999 0 10.408-3.23 10.408-6.64 0-4.396-5.563-5.652-12.113-7.268-9.78-2.242-22.341-4.934-22.341-18.572 0-9.96 8.613-18.215 22.7-18.215 9.511 0 17.407 2.872 23.329 8.345l-7.088 9.332c-4.846-4.487-11.306-6.551-17.407-6.551-5.473 0-8.524 2.423-8.524 6.012 0 3.858 5.473 5.114 11.933 6.64 9.87 2.333 22.432 5.293 22.432 18.842 0 10.946-7.807 19.201-23.957 19.201-11.485 0-19.74-3.858-25.302-9.51" class="st0" style="fill:#001326;fill-opacity:1"/>
</svg>
