<?xml version="1.0" standalone="no"?>
<!DOCTYPE svg PUBLIC "-//W3C//DTD SVG 20010904//EN"
 "http://www.w3.org/TR/2001/REC-SVG-20010904/DTD/svg10.dtd">
<svg version="1.0" xmlns="http://www.w3.org/2000/svg"
 width="2657.000000pt" height="683.000000pt" viewBox="0 0 2657.000000 683.000000"
 preserveAspectRatio="xMidYMid meet">

<g transform="translate(0.000000,683.000000) scale(0.100000,-0.100000)"
fill="#000000" stroke="none">
<path d="M0 5740 l0 -1090 190 0 190 0 0 444 c0 244 4 465 9 492 36 188 145
310 288 322 89 7 157 -13 208 -61 24 -24 49 -60 56 -82 10 -30 14 -170 16
-577 l4 -538 190 0 190 0 -3 588 -3 587 -27 80 c-34 99 -69 155 -140 221 -96
90 -212 134 -358 134 -146 0 -280 -51 -377 -142 l-53 -51 0 382 0 381 -190 0
-190 0 0 -1090z"/>
<path d="M2060 6671 c-80 -21 -157 -41 -172 -44 l-28 -7 0 -200 0 -200 -145 0
-145 0 0 -155 0 -155 145 0 145 0 0 -447 c0 -487 4 -527 57 -625 15 -27 48
-68 73 -92 98 -91 199 -120 395 -113 72 2 163 12 203 22 l72 17 0 157 0 157
-162 -3 c-152 -4 -165 -3 -196 17 -61 38 -62 46 -62 500 l0 410 195 0 195 0 0
155 0 155 -195 0 -195 0 0 245 c0 227 -1 245 -17 244 -10 0 -83 -18 -163 -38z"/>
<path d="M20878 6646 c-88 -32 -127 -88 -128 -183 l0 -53 -55 0 -55 0 0 -60 0
-60 55 0 55 0 0 -245 0 -246 73 3 72 3 3 243 2 242 80 0 80 0 0 60 0 60 -80 0
-80 0 0 43 c0 62 20 77 103 77 l67 0 0 59 0 58 -46 7 c-68 9 -104 7 -146 -8z"/>
<path d="M19444 6636 c-3 -7 -4 -175 -2 -372 3 -321 5 -362 21 -391 31 -57 97
-85 180 -75 l37 4 0 64 c0 63 0 64 -27 64 -54 0 -53 -9 -55 366 l-3 349 -73 3
c-56 2 -74 0 -78 -12z"/>
<path d="M16120 6220 l0 -420 75 0 75 0 0 187 c0 168 2 191 20 229 36 73 128
96 176 43 17 -19 19 -42 22 -240 l3 -219 75 0 75 0 -3 238 c-3 223 -4 239 -25
279 -58 108 -202 140 -308 68 l-35 -24 0 139 0 140 -75 0 -75 0 0 -420z"/>
<path d="M18052 6223 l3 -418 73 -3 72 -3 0 160 c0 88 5 184 11 213 22 102
111 148 184 94 19 -13 20 -29 25 -238 l5 -223 73 -3 72 -3 0 229 c0 287 -11
327 -106 372 -79 39 -179 27 -236 -28 l-28 -26 0 147 0 147 -75 0 -75 0 2
-417z"/>
<path d="M21220 6570 l0 -70 70 0 70 0 0 70 0 70 -70 0 -70 0 0 -70z"/>
<path d="M21460 6570 l0 -70 70 0 70 0 0 70 0 70 -70 0 -70 0 0 -70z"/>
<path d="M13990 6215 l0 -415 75 0 75 0 0 180 0 180 170 0 170 0 0 -180 0
-180 75 0 75 0 0 415 0 415 -75 0 -75 0 0 -160 0 -160 -170 0 -170 0 0 160 0
160 -75 0 -75 0 0 -415z"/>
<path d="M15019 6420 c-146 -24 -234 -142 -234 -315 0 -108 24 -175 85 -235
107 -108 293 -107 397 2 124 129 104 408 -35 501 -64 42 -140 58 -213 47z
m129 -158 c79 -74 64 -290 -23 -330 -41 -19 -99 -15 -129 9 -43 34 -59 75 -59
160 -1 130 40 188 134 189 38 0 53 -6 77 -28z"/>
<path d="M15683 6419 c-97 -18 -181 -92 -208 -183 -8 -27 -15 -87 -15 -133 0
-137 47 -230 143 -280 69 -37 190 -39 252 -6 56 30 101 80 120 132 25 71 24
71 -60 71 -69 0 -75 -2 -75 -21 0 -11 -13 -34 -29 -50 -24 -23 -38 -29 -74
-29 -86 0 -127 60 -127 184 0 131 38 188 127 188 51 0 78 -19 100 -69 13 -32
15 -33 78 -33 35 0 67 4 70 10 3 5 1 27 -5 48 -31 119 -164 195 -297 171z"/>
<path d="M17000 6423 c-135 -18 -210 -87 -210 -194 0 -108 65 -159 225 -179
50 -7 100 -18 113 -26 26 -17 30 -65 7 -88 -23 -23 -92 -38 -136 -31 -42 7
-89 47 -89 76 0 17 -8 19 -70 19 -64 0 -70 -2 -70 -20 0 -65 85 -158 165 -180
64 -18 189 -9 241 18 119 61 150 192 67 283 -39 44 -93 63 -203 74 -81 9 -110
26 -110 65 0 81 163 99 193 20 11 -30 13 -30 84 -30 l73 0 -6 28 c-23 95 -95
149 -219 165 -16 2 -41 2 -55 0z"/>
<path d="M17621 6419 c-155 -30 -227 -131 -225 -319 0 -111 22 -171 82 -233
91 -94 261 -102 364 -17 40 33 78 102 78 143 0 27 -1 27 -68 27 l-68 0 -17
-38 c-36 -83 -149 -84 -199 -3 -19 30 -22 50 -22 126 -1 133 37 188 125 187
52 -1 84 -22 100 -67 l13 -35 68 0 c68 0 68 0 68 28 -1 122 -159 228 -299 201z"/>
<path d="M19993 6420 c-66 -14 -110 -39 -153 -87 -64 -73 -92 -193 -70 -299
32 -156 133 -244 280 -244 107 0 202 55 236 136 25 60 22 64 -55 64 -61 0 -70
-3 -76 -20 -11 -36 -54 -60 -106 -60 -42 0 -55 5 -85 33 -25 23 -38 45 -44 75
l-7 42 205 0 205 0 -5 78 c-6 99 -36 170 -94 221 -59 52 -153 76 -231 61z
m126 -136 c13 -9 29 -32 37 -50 27 -64 28 -64 -117 -64 -126 0 -130 1 -125 20
3 11 8 29 12 40 3 10 19 31 35 45 37 30 120 35 158 9z"/>
<path d="M22085 6405 c-22 -8 -52 -28 -67 -44 l-26 -30 -7 40 -7 39 -64 0 -64
0 2 -302 3 -303 72 -3 71 -3 4 183 c3 161 5 187 23 217 32 55 68 75 131 75
l55 0 -3 71 -3 70 -40 2 c-22 2 -58 -4 -80 -12z"/>
<path d="M18742 6178 c3 -222 4 -235 27 -281 32 -66 85 -100 162 -105 70 -5
134 15 170 54 l24 26 5 -34 c5 -33 5 -33 68 -36 l62 -3 0 306 0 305 -75 0 -75
0 0 -179 c0 -209 -3 -232 -40 -271 -23 -25 -36 -30 -75 -30 -98 0 -105 19
-105 281 l0 199 -76 0 -75 0 3 -232z"/>
<path d="M21150 6178 c0 -253 6 -284 61 -335 78 -71 222 -71 294 1 l24 24 7
-34 6 -34 59 0 59 0 0 305 0 305 -75 0 -75 0 0 -196 c0 -200 -3 -217 -43 -261
-30 -34 -109 -32 -142 2 -25 24 -25 24 -25 240 l0 215 -75 0 -75 0 0 -232z"/>
<path d="M6306 6244 c-86 -19 -174 -54 -237 -95 -57 -36 -142 -126 -169 -178
-62 -122 -66 -278 -12 -395 59 -126 183 -219 337 -251 39 -8 151 -24 250 -35
221 -26 271 -45 306 -116 17 -36 20 -55 15 -92 -16 -121 -127 -178 -336 -170
-95 3 -113 7 -166 33 -69 36 -108 86 -126 163 l-13 52 -177 0 c-203 0 -188 9
-163 -98 44 -185 193 -344 383 -406 119 -39 202 -50 337 -43 213 11 372 71
480 181 100 103 142 216 133 367 -7 110 -36 184 -99 253 -105 115 -203 153
-492 192 -244 32 -263 37 -310 85 -38 38 -39 41 -35 98 5 73 37 119 105 152
42 21 62 24 158 24 101 0 115 -3 163 -28 54 -28 112 -100 112 -138 0 -49 1
-49 192 -49 l181 0 -7 51 c-27 204 -190 372 -421 435 -87 23 -301 28 -389 8z"/>
<path d="M7938 6250 c-255 -46 -419 -180 -472 -386 -9 -34 -16 -74 -16 -88 l0
-26 185 0 185 0 0 23 c1 37 35 100 73 134 53 47 131 67 237 61 123 -7 181 -40
215 -121 19 -47 21 -217 3 -217 -85 -1 -538 -43 -583 -55 -326 -84 -481 -394
-343 -684 150 -314 678 -381 938 -119 l57 58 11 -38 c40 -134 215 -201 385
-147 l57 18 0 142 0 143 -37 -5 c-29 -4 -45 0 -65 16 l-26 21 -4 408 c-4 378
-6 413 -26 485 -29 105 -64 166 -133 232 -62 59 -145 103 -244 131 -69 19
-322 28 -397 14z m422 -985 c0 -135 -56 -234 -167 -292 -134 -71 -298 -72
-379 -1 -48 42 -67 83 -67 143 0 83 38 136 127 176 48 21 254 44 424 48 l62 1
0 -75z"/>
<path d="M9615 6246 c-273 -53 -428 -205 -470 -458 l-6 -38 185 0 186 0 6 28
c18 83 47 123 117 160 47 24 62 27 162 27 99 0 116 -3 160 -26 74 -38 98 -87
103 -211 4 -78 2 -98 -9 -98 -8 0 -131 -9 -275 -20 -194 -14 -278 -25 -330
-41 -245 -76 -375 -236 -374 -464 1 -129 38 -229 121 -319 99 -109 229 -164
404 -173 184 -9 342 45 455 155 61 59 62 59 71 35 5 -13 9 -28 9 -32 0 -17 53
-78 90 -102 75 -51 213 -57 313 -15 l37 15 0 138 0 138 -50 0 c-89 0 -84 -25
-91 458 -4 352 -8 431 -22 480 -53 182 -175 298 -372 352 -83 23 -327 29 -420
11z m443 -985 c-8 -137 -58 -225 -162 -286 -98 -58 -255 -72 -341 -31 -58 27
-78 47 -100 99 -30 73 -14 146 45 204 54 52 98 63 336 83 121 9 221 18 223 19
2 0 1 -39 -1 -88z"/>
<path d="M11543 6225 c-118 -32 -195 -81 -253 -163 -21 -29 -40 -49 -43 -45
-2 4 -10 52 -17 106 l-13 97 -163 0 -164 0 0 -785 0 -785 195 0 195 0 0 438
c0 471 2 499 54 600 33 64 99 125 171 159 55 26 69 28 183 28 l122 0 0 183 0
182 -107 -1 c-60 0 -131 -7 -160 -14z"/>
<path d="M2812 6203 c2 -10 92 -363 199 -785 l194 -768 177 0 177 0 173 525
c95 289 175 519 179 512 3 -6 84 -243 179 -524 l173 -513 176 0 176 0 159 653
c88 358 174 712 192 785 l31 132 -181 0 -181 0 -114 -487 c-63 -269 -117 -497
-121 -507 -4 -12 -55 129 -149 415 -78 239 -152 463 -164 499 l-22 65 -156 3
-155 2 -159 -487 c-86 -269 -161 -494 -165 -502 -7 -12 -45 136 -211 822 l-43
177 -184 0 c-171 0 -184 -1 -180 -17z"/>
<path d="M25962 5259 c-97 -19 -152 -85 -152 -182 l0 -56 -52 -3 -53 -3 0 -60
0 -60 53 -3 52 -3 0 -240 0 -239 75 0 75 0 0 240 0 239 78 3 77 3 0 60 0 60
-77 3 -78 3 0 43 c0 64 22 79 105 74 l65 -4 0 57 c0 46 -3 59 -17 62 -41 12
-111 14 -151 6z"/>
<path d="M15820 4830 l0 -420 75 0 75 0 0 183 c0 198 11 245 61 281 32 22 101
21 130 -3 24 -19 24 -22 27 -240 l3 -221 75 0 74 0 0 218 c0 232 -6 276 -47
331 -65 85 -220 95 -300 19 l-23 -21 0 146 0 147 -75 0 -75 0 0 -420z"/>
<path d="M17210 5175 l0 -75 80 0 80 0 0 75 0 75 -80 0 -80 0 0 -75z"/>
<path d="M17560 4830 l0 -420 75 0 75 0 0 83 0 83 48 47 47 46 80 -126 c44
-69 85 -127 91 -130 6 -2 45 -3 88 -1 l77 3 -116 178 c-63 99 -115 182 -115
186 0 4 45 57 100 117 55 60 100 112 100 117 0 4 -38 7 -85 7 l-85 0 -84 -87
c-45 -49 -97 -104 -114 -123 l-31 -35 -1 238 0 237 -75 0 -75 0 0 -420z"/>
<path d="M20260 5113 c0 -129 -1 -135 -17 -121 -48 41 -170 51 -238 19 -95
-44 -147 -137 -153 -278 -7 -153 42 -259 144 -309 83 -40 197 -30 256 23 16
14 18 13 24 -11 6 -25 10 -26 70 -26 l64 0 0 420 0 420 -75 0 -75 0 0 -137z
m-54 -228 c55 -35 79 -200 41 -287 -31 -73 -133 -101 -189 -52 -74 67 -78 272
-5 332 38 32 108 35 153 7z"/>
<path d="M21870 5175 l0 -75 80 0 80 0 0 75 0 75 -80 0 -80 0 0 -75z"/>
<path d="M24410 4830 l0 -420 75 0 75 0 0 166 c0 185 10 241 50 284 24 26 35
30 78 30 43 0 54 -4 71 -26 20 -25 21 -39 21 -240 l0 -214 75 0 75 0 0 230 c0
246 -5 276 -53 329 -70 76 -218 80 -294 9 l-23 -21 0 146 0 147 -75 0 -75 0 0
-420z"/>
<path d="M13900 5165 l0 -75 120 0 120 0 0 -340 0 -340 80 0 80 0 0 340 0 340
120 0 120 0 0 75 0 75 -320 0 -320 0 0 -75z"/>
<path d="M20787 5233 c-2 -5 32 -190 77 -413 l82 -405 76 -3 77 -3 35 113 c19
62 56 186 83 275 26 90 50 163 53 163 3 0 29 -80 58 -178 30 -97 67 -221 84
-275 l30 -98 76 3 76 3 82 408 c60 302 78 410 69 413 -7 3 -38 4 -70 2 l-59
-3 -55 -272 c-31 -150 -58 -273 -61 -273 -4 0 -107 337 -152 498 l-9 33 -67
-3 -66 -3 -80 -267 c-53 -174 -83 -262 -88 -250 -4 9 -30 131 -57 270 -28 139
-53 257 -56 262 -7 12 -132 14 -138 3z"/>
<path d="M22788 5183 l-58 -15 0 -74 0 -73 -52 -3 -53 -3 0 -60 0 -60 53 -3
52 -3 0 -149 c0 -82 5 -172 11 -200 22 -101 98 -149 218 -137 90 10 91 11 91
78 l0 58 -72 3 c-96 4 -98 8 -98 200 l0 147 78 3 77 3 0 60 0 60 -77 3 -78 3
0 89 c0 102 5 98 -92 73z"/>
<path d="M26355 5193 c-11 -2 -37 -9 -57 -14 l-38 -10 0 -74 0 -74 -52 -3 -53
-3 0 -60 0 -60 52 -3 52 -3 3 -182 c3 -207 12 -239 77 -279 30 -19 50 -23 116
-23 112 0 115 2 115 75 l0 60 -64 0 c-96 0 -96 0 -96 191 l0 159 75 0 75 0 0
65 0 65 -75 0 -75 0 0 90 c0 97 0 96 -55 83z"/>
<path d="M14700 5021 c-76 -23 -136 -78 -172 -156 -33 -74 -33 -228 1 -302 26
-59 94 -127 149 -150 44 -19 163 -21 207 -4 74 29 128 86 150 159 6 21 4 22
-62 22 -65 0 -71 -2 -91 -30 -69 -93 -232 -30 -232 91 0 18 9 19 205 19 l205
0 0 33 c0 54 -20 149 -40 188 -25 49 -99 113 -148 127 -43 13 -133 14 -172 3z
m160 -138 c18 -16 35 -44 39 -65 l9 -38 -129 0 c-142 0 -144 1 -114 60 25 47
62 70 116 70 39 0 55 -5 79 -27z"/>
<path d="M15335 5014 c-61 -21 -110 -68 -142 -132 -26 -52 -28 -67 -28 -167 0
-95 3 -117 24 -163 88 -195 389 -206 477 -18 13 28 24 61 24 74 0 21 -4 22
-70 22 l-70 0 -14 -34 c-19 -45 -52 -66 -102 -66 -82 0 -124 62 -124 185 0
123 42 185 124 185 50 0 83 -21 102 -66 l14 -34 71 0 71 0 -7 38 c-15 82 -77
150 -164 180 -45 16 -136 14 -186 -4z"/>
<path d="M16735 5012 c-22 -11 -49 -29 -60 -42 l-20 -22 -5 33 -5 34 -62 3
-63 3 0 -306 0 -305 75 0 75 0 0 183 c0 156 3 188 19 223 24 52 55 74 104 74
89 0 97 -24 97 -281 l0 -199 76 0 75 0 -3 233 c-3 221 -4 234 -27 280 -34 69
-85 101 -170 105 -49 2 -76 -2 -106 -16z"/>
<path d="M19427 5020 c-16 -5 -43 -20 -62 -34 -42 -32 -43 -32 -47 2 -3 26 -5
27 -63 27 l-60 0 -3 -302 -2 -303 74 0 74 0 4 193 c4 206 10 237 60 271 31 22
100 20 129 -3 24 -19 24 -22 27 -240 l3 -221 75 0 74 0 0 218 c0 232 -6 276
-47 331 -46 60 -149 87 -236 61z"/>
<path d="M22515 5025 c-5 -2 -27 -6 -48 -10 -20 -3 -53 -19 -71 -35 -19 -17
-36 -30 -39 -30 -3 0 -7 15 -9 33 -3 32 -3 32 -65 35 l-63 3 0 -306 0 -305 75
0 75 0 0 175 c0 195 6 223 59 268 27 22 42 27 87 27 l54 0 0 70 c0 39 -4 70
-9 70 -5 0 -15 2 -23 4 -7 3 -17 3 -23 1z"/>
<path d="M23276 5010 c-133 -52 -172 -185 -85 -285 34 -39 91 -59 194 -70 79
-8 114 -23 121 -51 9 -36 -5 -65 -42 -80 -79 -33 -179 -4 -191 56 -5 30 -6 30
-76 30 l-70 0 6 -37 c20 -121 166 -200 319 -173 112 20 177 75 193 163 16 82
-23 154 -100 188 -22 10 -80 23 -130 29 -98 13 -125 28 -125 70 0 54 73 84
145 60 27 -9 41 -21 51 -47 l15 -34 67 3 c65 3 67 4 63 28 -5 41 -38 97 -70
119 -74 53 -195 66 -285 31z"/>
<path d="M23937 5016 c-128 -46 -197 -170 -184 -331 14 -179 101 -274 260
-283 80 -5 140 14 195 62 39 34 71 97 72 139 0 27 0 27 -69 27 l-69 0 -12 -35
c-15 -46 -44 -65 -100 -65 -90 0 -124 51 -124 185 0 128 36 185 118 185 53 0
84 -19 103 -62 l17 -38 68 0 c67 0 68 0 68 27 0 41 -38 110 -78 143 -68 56
-181 76 -265 46z"/>
<path d="M25250 5021 c-74 -24 -119 -63 -145 -123 -26 -64 -23 -68 55 -68 l70
0 14 34 c11 27 23 37 54 47 51 15 107 5 127 -24 18 -26 20 -97 3 -97 -75 -2
-221 -22 -249 -34 -70 -29 -120 -104 -118 -176 2 -69 61 -149 127 -172 83 -28
209 -5 251 46 18 21 28 20 36 -4 12 -38 82 -60 143 -44 20 6 22 13 22 65 0 56
-1 59 -24 59 l-24 0 -4 178 c-3 171 -4 179 -30 222 -39 68 -92 93 -198 97 -47
1 -96 -1 -110 -6z m190 -378 c-1 -77 -52 -123 -137 -123 -62 0 -93 23 -93 70
0 55 38 74 170 83 25 2 48 4 53 5 4 1 7 -15 7 -35z"/>
<path d="M17220 4715 l0 -305 75 0 75 0 0 305 0 305 -75 0 -75 0 0 -305z"/>
<path d="M18492 4772 l3 -249 28 -41 c37 -57 95 -85 172 -85 67 0 132 27 159
65 l16 22 0 -21 c0 -46 9 -53 71 -53 l59 0 0 305 0 306 -72 -3 -73 -3 -5 -200
c-5 -211 -9 -227 -56 -264 -44 -35 -119 -23 -143 23 -7 13 -12 101 -14 231
l-2 210 -73 3 -73 3 3 -249z"/>
<path d="M21880 4715 l0 -305 75 0 75 0 -2 303 -3 302 -72 3 -73 3 0 -306z"/>
<path d="M14357 3853 c-4 -3 -7 -64 -7 -134 l0 -128 -37 22 c-58 34 -172 32
-234 -5 -105 -62 -159 -217 -129 -370 16 -83 40 -127 95 -176 84 -74 207 -81
284 -17 36 31 41 31 41 0 0 -24 2 -25 65 -25 l65 0 0 420 0 420 -68 0 c-38 0
-72 -3 -75 -7z m-49 -371 c39 -36 55 -98 50 -187 -6 -82 -27 -129 -68 -150
-42 -22 -102 -19 -134 6 -46 36 -60 75 -60 169 0 131 42 190 134 190 39 0 54
-5 78 -28z"/>
<path d="M16400 3844 c-74 -20 -136 -60 -173 -112 -60 -84 -46 -226 29 -292
51 -44 93 -58 226 -75 126 -16 130 -17 166 -48 16 -15 22 -32 22 -62 0 -77
-54 -115 -164 -115 -105 0 -165 37 -181 110 l-7 30 -79 0 -78 0 5 -32 c10 -57
54 -136 92 -168 63 -52 134 -74 242 -74 121 -1 186 20 251 81 136 128 88 340
-91 401 -18 7 -77 17 -130 23 -149 16 -190 37 -190 97 0 68 61 112 157 112 78
0 122 -23 148 -77 l20 -42 77 -1 78 0 -7 33 c-9 49 -37 98 -80 138 -47 45 -82
63 -151 78 -69 14 -114 13 -182 -5z"/>
<path d="M18760 3493 c0 -331 2 -371 18 -402 29 -57 64 -76 140 -76 l67 0 3
63 c3 60 2 62 -22 62 -56 0 -56 1 -56 376 l0 344 -75 0 -75 0 0 -367z"/>
<path d="M20860 3726 l0 -136 -39 20 c-96 51 -219 32 -289 -44 -50 -54 -70
-99 -82 -186 -16 -116 14 -234 79 -303 78 -84 219 -99 307 -31 l32 23 6 -24
c6 -23 11 -25 71 -25 l65 0 -2 418 -3 417 -72 3 -73 3 0 -135z m-55 -238 c40
-31 55 -77 55 -168 0 -128 -40 -190 -122 -190 -92 0 -137 62 -138 188 0 127
44 192 131 192 32 0 55 -7 74 -22z"/>
<path d="M14843 3626 c-126 -40 -203 -178 -190 -339 13 -158 113 -270 252
-284 131 -14 253 60 280 170 l7 27 -71 0 c-67 0 -71 -1 -85 -28 -50 -97 -209
-51 -232 66 l-6 32 203 2 204 3 -2 76 c-1 54 -8 92 -23 128 -54 125 -201 189
-337 147z m154 -126 c35 -21 47 -39 58 -87 l7 -33 -132 0 -132 0 5 30 c19 92
116 138 194 90z"/>
<path d="M15462 3622 c-113 -41 -168 -141 -131 -239 27 -71 76 -99 208 -117
124 -18 141 -26 141 -71 0 -49 -37 -75 -107 -75 -69 0 -108 20 -124 65 -13 35
-13 35 -75 35 -35 0 -66 -5 -69 -10 -9 -15 14 -80 41 -117 13 -17 50 -44 81
-60 49 -24 70 -28 138 -28 94 0 143 15 192 58 44 39 63 82 63 142 0 111 -67
161 -244 185 -85 11 -116 29 -116 65 0 39 40 65 99 65 64 0 84 -10 101 -50 12
-29 14 -30 82 -30 l71 0 -7 33 c-10 50 -56 108 -109 135 -65 34 -163 39 -235
14z"/>
<path d="M17096 3624 c-83 -26 -129 -73 -146 -150 l-8 -34 74 0 c60 0 74 3 74
15 0 9 11 27 25 40 20 20 34 25 78 25 69 0 96 -20 104 -77 6 -49 8 -48 -128
-57 -133 -9 -200 -40 -233 -109 -20 -43 -21 -129 -2 -166 38 -73 140 -120 232
-107 47 6 113 35 132 59 11 12 18 9 46 -19 28 -28 42 -34 76 -34 66 0 80 13
80 70 0 41 -3 50 -18 50 -38 0 -42 19 -42 178 0 92 -5 171 -12 195 -33 111
-185 166 -332 121z m204 -364 c0 -34 -26 -85 -54 -108 -94 -74 -238 2 -168 89
20 24 69 36 165 38 51 1 57 -1 57 -19z"/>
<path d="M17752 3621 c-63 -22 -98 -52 -123 -106 -32 -70 -29 -75 50 -75 61 0
70 2 76 20 13 42 45 60 107 60 73 0 98 -21 98 -80 0 -46 1 -46 -133 -54 -98
-7 -148 -23 -191 -64 -79 -75 -71 -209 17 -276 78 -59 221 -57 291 5 38 33 46
35 46 15 0 -27 50 -56 96 -56 68 0 74 5 74 65 0 48 -2 54 -22 57 -23 3 -23 6
-29 178 -6 191 -17 234 -75 279 -63 50 -189 64 -282 32z m208 -371 c0 -69 -48
-115 -132 -126 -35 -5 -48 -2 -70 16 -48 38 -33 112 25 125 12 2 31 6 42 8 11
3 46 5 78 6 l57 1 0 -30z"/>
<path d="M19256 3624 c-27 -9 -59 -22 -72 -31 -30 -19 -64 -74 -74 -119 l-8
-34 74 0 c60 0 74 3 74 15 0 9 11 27 25 40 20 20 34 25 78 25 69 0 96 -20 104
-77 6 -49 8 -48 -128 -57 -134 -9 -200 -40 -234 -111 -21 -45 -21 -123 -1
-163 62 -120 256 -148 362 -51 20 19 21 19 33 -5 23 -42 104 -61 152 -36 27
15 28 110 1 110 -38 0 -42 19 -42 178 0 92 -5 171 -12 195 -33 111 -185 166
-332 121z m204 -364 c0 -34 -26 -85 -54 -108 -94 -74 -238 2 -168 89 20 24 69
36 165 38 51 1 57 -1 57 -19z"/>
<path d="M20039 3631 c-37 -12 -71 -31 -96 -54 l-23 -20 0 31 0 32 -65 0 -65
0 0 -300 0 -300 74 0 74 0 4 193 c2 160 6 197 21 224 34 63 114 82 164 39 l28
-24 3 -216 3 -216 75 0 74 0 0 213 c0 159 -4 226 -15 263 -31 106 -148 167
-256 135z"/>
<path d="M21342 3622 c-71 -26 -136 -90 -163 -162 -29 -73 -31 -194 -5 -270
37 -108 152 -190 266 -190 96 0 191 54 231 131 32 64 28 69 -50 69 -62 0 -70
-2 -76 -21 -9 -28 -63 -59 -105 -59 -66 0 -130 61 -130 125 l0 25 200 0 200 0
0 63 c0 127 -49 222 -141 271 -68 38 -153 44 -227 18z m148 -115 c31 -16 70
-73 70 -103 0 -24 0 -24 -129 -24 l-129 0 7 33 c11 46 31 75 66 92 37 18 82
19 115 2z"/>
<path d="M21978 3627 c-123 -35 -186 -146 -140 -249 30 -68 84 -99 197 -112
114 -14 126 -18 141 -42 36 -55 -14 -104 -105 -104 -78 0 -104 17 -125 83 -4
14 -17 17 -70 17 -36 0 -67 -3 -69 -7 -3 -5 2 -29 9 -54 36 -120 201 -189 348
-145 107 32 160 95 160 191 1 105 -62 156 -218 180 -52 7 -104 19 -115 24 -40
22 -35 78 9 101 10 5 42 10 70 10 41 0 56 -5 75 -25 14 -13 25 -31 25 -40 0
-12 14 -15 71 -15 l72 0 -6 37 c-19 115 -185 190 -329 150z"/>
<path d="M18520 3619 c-14 -6 -39 -24 -56 -40 l-31 -30 -7 35 -7 36 -64 0 -65
0 0 -300 0 -300 74 0 74 0 4 183 c3 168 5 185 26 218 27 45 75 69 136 69 l46
0 0 70 0 70 -52 -1 c-29 0 -64 -5 -78 -10z"/>
<path d="M20401 2452 c-59 -29 -76 -62 -80 -158 l-3 -84 -59 0 c-59 0 -59 0
-59 -30 l0 -30 60 0 60 0 0 -265 0 -265 30 0 30 0 0 265 0 265 90 0 90 0 0 30
0 30 -90 0 -90 0 0 65 c0 84 18 121 67 134 20 6 56 8 79 4 44 -6 44 -6 44 26
l0 31 -67 0 c-45 0 -80 -6 -102 -18z"/>
<path d="M14002 2143 c5 -347 8 -366 79 -447 56 -64 127 -89 234 -84 123 7
198 56 247 163 22 48 23 61 26 363 l3 312 -30 0 -29 0 -4 -302 c-3 -281 -5
-306 -24 -348 -42 -92 -127 -137 -238 -127 -73 7 -130 44 -166 107 -25 45 -25
45 -28 358 l-3 312 -35 0 -36 0 4 -307z"/>
<path d="M15510 2405 l0 -45 40 0 40 0 0 45 0 45 -40 0 -40 0 0 -45z"/>
<path d="M18052 2408 c3 -43 3 -43 43 -43 40 0 40 0 43 43 l3 42 -46 0 -46 0
3 -42z"/>
<path d="M18418 2373 c-15 -4 -18 -17 -18 -83 l0 -79 -57 -3 c-55 -3 -58 -4
-61 -30 -3 -28 -3 -28 57 -28 l61 0 0 -207 c0 -183 3 -213 19 -250 24 -52 67
-76 138 -75 74 1 93 8 93 39 0 25 -1 26 -54 19 -123 -14 -136 12 -136 279 l0
195 90 0 90 0 0 30 0 30 -90 0 -90 0 0 85 c0 87 -1 89 -42 78z"/>
<path d="M14985 2201 c-22 -10 -55 -34 -73 -55 l-32 -37 0 51 c0 50 -1 51 -27
48 l-28 -3 0 -290 0 -290 30 0 30 0 5 200 c5 190 6 202 30 245 45 80 151 114
234 75 58 -28 61 -38 66 -290 l5 -230 30 0 30 0 0 220 c0 152 -4 231 -13 256
-15 44 -66 93 -111 108 -50 16 -130 13 -176 -8z"/>
<path d="M16495 2208 c-176 -62 -231 -342 -100 -514 54 -70 170 -101 269 -72
52 16 127 90 143 141 l11 37 -33 0 c-26 0 -34 -5 -39 -22 -16 -58 -89 -108
-159 -108 -107 0 -177 66 -197 188 l-7 42 225 0 225 0 -6 63 c-11 113 -57 190
-140 232 -55 27 -135 33 -192 13z m163 -62 c52 -27 90 -83 102 -148 l7 -38
-188 0 -189 0 0 28 c0 34 31 101 56 124 54 48 155 64 212 34z"/>
<path d="M17230 2213 c-58 -10 -91 -26 -124 -63 l-35 -39 -3 47 c-3 43 -5 47
-30 50 l-28 3 0 -295 0 -296 29 0 29 0 3 193 c4 183 5 195 30 242 35 69 76 95
150 95 59 0 59 0 59 30 0 19 -5 30 -14 30 -8 0 -20 2 -28 4 -7 2 -24 1 -38 -1z"/>
<path d="M17541 2207 c-50 -16 -97 -66 -111 -116 -10 -37 -9 -51 5 -87 26 -69
76 -94 210 -109 33 -4 79 -15 102 -25 34 -15 44 -25 54 -58 23 -79 -31 -134
-140 -140 -97 -6 -154 20 -182 83 -17 39 -24 45 -49 45 -79 0 13 -143 113
-176 74 -24 181 -15 242 20 92 54 112 169 42 244 -35 38 -73 53 -174 68 -138
21 -163 37 -163 109 0 25 8 40 35 64 32 28 42 31 104 31 81 0 125 -24 154 -83
14 -27 25 -37 42 -37 32 0 35 8 19 55 -16 50 -70 100 -121 114 -47 13 -137 12
-182 -2z"/>
<path d="M19745 2201 c-126 -57 -186 -234 -138 -405 21 -76 96 -158 158 -175
130 -35 252 21 306 141 34 76 34 230 1 303 -29 62 -75 112 -127 136 -53 24
-147 25 -200 0z m189 -64 c28 -15 49 -39 68 -76 25 -47 28 -64 28 -145 0 -79
-4 -99 -26 -144 -62 -126 -233 -138 -309 -23 -54 80 -54 252 0 332 50 77 159
102 239 56z"/>
<path d="M15520 1915 l0 -295 30 0 30 0 0 295 0 295 -30 0 -30 0 0 -295z"/>
<path d="M15730 2203 c0 -5 51 -136 113 -293 111 -282 113 -285 143 -288 l31
-3 105 278 c59 153 110 286 114 296 6 16 2 18 -27 15 l-34 -3 -87 -230 c-47
-126 -90 -236 -95 -243 -5 -8 -41 73 -103 233 l-95 245 -32 0 c-18 0 -33 -3
-33 -7z"/>
<path d="M18065 2197 c-3 -7 -4 -138 -3 -292 l3 -280 30 0 30 0 3 293 2 292
-30 0 c-17 0 -33 -6 -35 -13z"/>
<path d="M18720 2202 c0 -5 52 -137 115 -293 63 -156 115 -290 115 -297 0 -27
-59 -140 -81 -156 -15 -10 -43 -16 -76 -16 -49 0 -53 -2 -53 -24 0 -26 21 -36
78 -36 49 0 100 28 127 69 19 30 295 736 295 756 0 3 -14 5 -32 3 l-32 -3 -93
-245 c-51 -135 -94 -249 -96 -255 -2 -5 -49 105 -104 245 -100 254 -101 255
-132 258 -17 2 -31 -1 -31 -6z"/>
<path d="M16092 683 c3 -357 4 -390 21 -415 23 -33 77 -52 123 -44 28 6 34 11
34 31 0 22 -4 25 -39 25 -73 0 -71 -14 -71 411 l0 379 -35 0 -36 0 3 -387z"/>
<path d="M17770 904 l0 -166 -40 35 c-97 83 -237 74 -319 -20 -54 -61 -76
-128 -76 -233 0 -99 20 -168 65 -222 83 -101 252 -108 339 -14 29 31 41 26 41
-20 0 -31 2 -34 30 -34 l30 0 0 420 0 420 -35 0 -35 0 0 -166z m-85 -168 c59
-45 79 -89 83 -187 5 -96 -7 -145 -45 -197 -39 -52 -80 -72 -144 -72 -75 0
-115 27 -153 102 -49 100 -37 252 27 325 17 20 45 42 62 50 45 20 129 10 170
-21z"/>
<path d="M18467 1054 c-63 -19 -141 -94 -156 -149 -29 -108 12 -206 105 -247
24 -10 96 -26 162 -34 177 -24 236 -67 236 -174 0 -101 -75 -161 -210 -168
-72 -4 -89 -1 -136 21 -58 26 -93 65 -114 126 -10 30 -17 37 -43 39 -27 3 -31
0 -31 -20 0 -39 49 -126 92 -163 54 -45 123 -67 213 -67 179 0 295 92 295 233
-1 70 -26 126 -79 171 -48 41 -85 53 -234 73 -117 16 -155 32 -181 75 -20 35
-21 102 -1 139 72 139 322 133 395 -9 11 -22 20 -46 20 -55 0 -16 55 -22 63
-7 3 4 -2 28 -10 55 -40 136 -221 212 -386 161z"/>
<path d="M14203 1023 c-8 -21 -75 -195 -148 -388 -73 -192 -138 -362 -144
-377 -10 -27 -9 -28 23 -28 34 0 34 0 74 108 l40 107 198 0 198 0 41 -105 c40
-101 43 -105 73 -108 18 -2 32 -1 32 2 0 8 -298 784 -310 806 -6 12 -21 20
-36 20 -19 0 -28 -8 -41 -37z m131 -289 l84 -219 -165 -3 c-91 -1 -168 0 -171
2 -3 3 32 105 78 226 46 121 84 219 86 217 2 -2 42 -102 88 -223z"/>
<path d="M16430 1015 l0 -45 40 0 40 0 0 45 0 45 -40 0 -40 0 0 -45z"/>
<path d="M19670 1015 l0 -45 40 0 40 0 0 45 0 45 -40 0 -40 0 0 -45z"/>
<path d="M14884 806 c-28 -13 -60 -35 -71 -49 -25 -32 -33 -26 -33 25 0 37 -2
39 -27 36 l-28 -3 -3 -407 -2 -408 35 0 35 0 0 156 0 157 20 -26 c74 -94 271
-90 345 7 82 107 97 286 35 406 -59 113 -191 159 -306 106z m159 -50 c44 -18
94 -77 108 -128 6 -24 11 -76 11 -117 0 -60 -6 -84 -29 -130 -40 -80 -79 -104
-163 -99 -82 4 -118 28 -154 100 -50 100 -29 279 40 340 50 44 129 59 187 34z"/>
<path d="M15587 816 c-44 -16 -64 -30 -94 -65 l-23 -26 0 25 c0 49 -11 70 -36
70 l-24 0 0 -410 0 -410 30 0 30 0 0 157 0 157 33 -32 c98 -95 262 -83 344 26
48 64 67 138 60 241 -8 127 -45 201 -124 248 -53 31 -141 40 -196 19z m153
-68 c84 -42 127 -173 101 -300 -23 -109 -86 -168 -180 -168 -127 0 -200 105
-189 270 12 169 139 263 268 198z"/>
<path d="M16865 815 c-57 -22 -122 -90 -145 -153 -24 -64 -27 -186 -5 -258 21
-73 67 -129 130 -160 130 -63 277 -11 333 119 18 41 15 47 -18 47 -24 0 -33
-6 -41 -27 -13 -35 -46 -71 -81 -89 -35 -18 -131 -18 -166 0 -56 29 -98 95
-109 171 l-6 45 222 0 221 0 0 49 c0 96 -51 193 -125 237 -57 33 -150 41 -210
19z m159 -59 c41 -17 90 -75 105 -125 22 -75 33 -71 -179 -71 l-190 0 0 25 c0
61 56 145 115 171 39 17 107 18 149 0z"/>
<path d="M19186 814 c-62 -22 -102 -59 -132 -121 -36 -73 -45 -209 -20 -294
17 -60 71 -131 117 -155 76 -39 183 -34 251 11 38 25 81 89 93 138 7 25 5 27
-23 27 -25 0 -33 -7 -54 -47 -13 -27 -40 -59 -59 -71 -29 -20 -44 -23 -99 -20
-80 4 -119 28 -152 96 -19 40 -23 62 -23 147 1 136 30 193 118 230 50 21 93
19 143 -6 34 -16 48 -31 66 -69 20 -44 27 -49 55 -50 l32 0 -14 48 c-18 58
-85 125 -141 141 -52 15 -110 13 -158 -5z"/>
<path d="M20105 815 c-57 -22 -122 -90 -145 -153 -24 -64 -27 -186 -5 -258 47
-158 219 -234 356 -157 54 31 103 89 115 136 6 25 4 27 -25 27 -25 0 -34 -6
-42 -27 -13 -35 -46 -71 -81 -89 -35 -18 -131 -18 -166 0 -56 29 -98 95 -109
171 l-6 45 222 0 221 0 0 49 c0 96 -51 193 -125 237 -57 33 -150 41 -210 19z
m159 -59 c41 -17 90 -75 105 -125 22 -75 33 -71 -179 -71 -212 0 -201 -5 -179
73 12 46 63 105 104 123 39 17 107 17 149 0z"/>
<path d="M20808 816 c-53 -19 -85 -42 -105 -73 l-18 -27 -5 49 c-5 45 -7 50
-30 50 l-25 0 -3 -292 -2 -293 34 0 35 0 3 203 c3 199 3 203 30 249 62 104
221 119 278 26 18 -30 20 -50 20 -255 l0 -223 35 0 35 0 0 195 c0 106 -5 217
-11 244 -13 62 -44 109 -87 134 -42 25 -136 32 -184 13z"/>
<path d="M21450 821 c-78 -25 -127 -70 -162 -146 -18 -41 -22 -68 -22 -145 -1
-112 13 -164 57 -221 104 -137 327 -117 398 36 27 58 25 75 -10 75 -24 0 -31
-6 -40 -33 -22 -66 -84 -107 -161 -107 -122 0 -180 78 -180 244 0 83 3 100 28
147 48 92 141 122 232 77 34 -17 51 -35 69 -70 20 -41 27 -48 53 -48 28 0 29
2 23 33 -10 49 -56 109 -103 135 -46 26 -139 37 -182 23z"/>
<path d="M22040 818 c-19 -7 -58 -35 -87 -64 -67 -67 -87 -130 -81 -253 8
-158 83 -256 213 -280 119 -22 244 53 270 162 7 25 5 27 -24 27 -25 0 -34 -6
-42 -27 -13 -35 -46 -71 -81 -89 -35 -18 -131 -18 -166 0 -56 29 -98 95 -109
171 l-6 45 222 0 221 0 0 48 c0 100 -49 193 -125 237 -53 31 -147 42 -205 23z
m153 -62 c43 -17 93 -76 106 -123 22 -78 33 -73 -179 -73 -212 0 -201 -5 -179
73 12 46 57 99 101 120 40 20 108 22 151 3z"/>
<path d="M22645 814 c-101 -37 -146 -147 -95 -231 27 -44 63 -60 177 -78 54
-8 112 -22 129 -31 75 -38 69 -140 -10 -178 -46 -22 -157 -21 -203 1 -37 17
-73 65 -73 96 0 13 -8 17 -35 17 -40 0 -42 -8 -16 -65 39 -85 114 -127 226
-127 103 0 175 35 211 104 22 42 18 110 -8 148 -43 63 -77 77 -237 101 -88 13
-121 38 -121 92 0 71 67 113 167 105 63 -6 100 -29 126 -81 15 -30 24 -37 48
-37 34 0 35 10 10 66 -43 95 -180 140 -296 98z"/>
<path d="M16440 525 l0 -295 30 0 30 0 0 295 0 295 -30 0 -30 0 0 -295z"/>
<path d="M19680 525 l0 -295 30 0 30 0 0 295 0 295 -30 0 -30 0 0 -295z"/>
</g>
</svg>
